<svg width="780" height="494" viewBox="0 0 780 494" fill="none" xmlns="http://www.w3.org/2000/svg">
<rect width="780" height="494" fill="white"/>
<rect x="448" y="272" width="20" height="76" rx="10" fill="#0267FF"/>
<rect x="448" y="272" width="20" height="76" rx="10" stroke="black"/>
<rect x="455" y="253" width="5" height="19" fill="#0267FF"/>
<rect x="455" y="253" width="5" height="19" stroke="black"/>
<rect x="504" y="222" width="5" height="24" transform="rotate(-90 504 222)" fill="#0267FF"/>
<rect x="504" y="222" width="5" height="24" transform="rotate(-90 504 222)" stroke="black"/>
<path d="M526.508 234.564L528.107 239.566L456.252 257.898L455 253.057L526.508 234.564Z" fill="#0267FF"/>
<path d="M526.508 234.564L528.107 239.566L456.252 257.898L455 253.057L526.508 234.564Z" stroke="black"/>
<rect x="523" y="219" width="5" height="18" fill="#0267FF"/>
<rect x="523" y="219" width="5" height="18" stroke="black"/>
<rect x="511" y="202" width="33" height="112" rx="13" transform="rotate(90 511 202)" fill="#0267FF"/>
<rect x="511" y="202" width="33" height="112" rx="13" transform="rotate(90 511 202)" stroke="black"/>
<g filter="url(#filter0_d_2_2)">
<text fill="#0267FF" xml:space="preserve" style="white-space: pre" font-family="Archivo" font-size="200" letter-spacing="0em"><tspan x="40" y="319.8">Isos&#10;</tspan><tspan x="40" y="537.8">&#10;</tspan></text>
<text stroke="black" stroke-width="4" xml:space="preserve" style="white-space: pre" font-family="Archivo" font-size="200" letter-spacing="0em"><tspan x="40" y="319.8">Isos&#10;</tspan><tspan x="40" y="537.8">&#10;</tspan></text>
</g>
<g filter="url(#filter1_d_2_2)">
<text fill="#0267FF" xml:space="preserve" style="white-space: pre" font-family="Archivo" font-size="200" letter-spacing="0em"><tspan x="523" y="325.8">ic</tspan></text>
<text stroke="black" stroke-width="4" xml:space="preserve" style="white-space: pre" font-family="Archivo" font-size="200" letter-spacing="0em"><tspan x="523" y="325.8">ic</tspan></text>
</g>
<defs>
<filter id="filter0_d_2_2" x="54.4" y="182.8" width="348.597" height="147.6" filterUnits="userSpaceOnUse" color-interpolation-filters="sRGB">
<feFlood flood-opacity="0" result="BackgroundImageFix"/>
<feColorMatrix in="SourceAlpha" type="matrix" values="0 0 0 0 0 0 0 0 0 0 0 0 0 0 0 0 0 0 127 0" result="hardAlpha"/>
<feOffset dy="4"/>
<feGaussianBlur stdDeviation="2"/>
<feComposite in2="hardAlpha" operator="out"/>
<feColorMatrix type="matrix" values="0 0 0 0 0 0 0 0 0 0 0 0 0 0 0 0 0 0 0.25 0"/>
<feBlend mode="normal" in2="BackgroundImageFix" result="effect1_dropShadow_2_2"/>
<feBlend mode="normal" in="SourceGraphic" in2="effect1_dropShadow_2_2" result="shape"/>
</filter>
<filter id="filter1_d_2_2" x="532.4" y="181.4" width="133.936" height="155" filterUnits="userSpaceOnUse" color-interpolation-filters="sRGB">
<feFlood flood-opacity="0" result="BackgroundImageFix"/>
<feColorMatrix in="SourceAlpha" type="matrix" values="0 0 0 0 0 0 0 0 0 0 0 0 0 0 0 0 0 0 127 0" result="hardAlpha"/>
<feOffset dy="4"/>
<feGaussianBlur stdDeviation="2"/>
<feComposite in2="hardAlpha" operator="out"/>
<feColorMatrix type="matrix" values="0 0 0 0 0 0 0 0 0 0 0 0 0 0 0 0 0 0 0.25 0"/>
<feBlend mode="normal" in2="BackgroundImageFix" result="effect1_dropShadow_2_2"/>
<feBlend mode="normal" in="SourceGraphic" in2="effect1_dropShadow_2_2" result="shape"/>
</filter>
</defs>
</svg>
