<svg width="2418" height="975" viewBox="0 0 2418 975" fill="none" xmlns="http://www.w3.org/2000/svg">
<g clip-path="url(#clip0_28_2)" filter="url(#filter0_d_28_2)">
<rect x="1275" y="475" width="87" height="231" rx="6" fill="#0267FF"/>
<rect x="1312" y="430" width="14" height="45" fill="#0267FF"/>
<path d="M1488.49 389.614L1503 402L1321.51 447.701L1311.55 431.571L1396.01 412.144L1488.49 389.614Z" fill="#0267FF"/>
<rect x="1489" y="331" width="14" height="71" fill="#0267FF"/>
<rect x="1445" y="332" width="18" height="58" transform="rotate(-90 1445 332)" fill="#0267FF"/>
<rect x="1144" y="270" width="301" height="123" rx="6" fill="#0267FF"/>
<g filter="url(#filter1_d_28_2)">
<path d="M282.8 276V684H205.4V276H282.8ZM526.325 471.6C512.325 465.2 499.325 460.4 487.325 457.2C475.325 453.6 462.525 451.8 448.925 451.8C438.925 451.8 431.125 453.8 425.525 457.8C420.325 461.4 417.725 466.6 417.725 473.4C417.725 478.2 420.925 482.8 427.325 487.2C434.125 491.6 444.925 496.4 459.725 501.6C484.125 510.4 506.725 522.8 527.525 538.8C548.325 554.4 558.725 574.8 558.725 600C558.725 628.8 548.325 651.2 527.525 667.2C507.125 683.2 477.125 691.2 437.525 691.2C425.125 691.2 408.525 688.8 387.725 684C367.325 679.2 350.325 671.6 336.725 661.2L360.125 604.8C374.125 611.2 387.525 616.2 400.325 619.8C413.525 623 425.525 624.6 436.325 624.6C450.725 624.6 461.725 622.6 469.325 618.6C476.925 614.6 480.725 609.4 480.725 603C480.725 595 476.925 587.8 469.325 581.4C461.725 575 449.725 569.2 433.325 564C410.125 556.4 388.125 545.6 367.325 531.6C346.925 517.2 336.725 498 336.725 474C336.725 446.4 346.925 424.8 367.325 409.2C387.725 393.2 415.325 385.2 450.125 385.2C462.525 385.2 478.525 387.8 498.125 393C517.725 398.2 534.925 405.8 549.725 415.8L526.325 471.6ZM733.709 691.2C687.709 691.2 651.709 677.4 625.709 649.8C600.109 621.8 587.309 584.4 587.309 537.6C587.309 491.2 600.709 454.2 627.509 426.6C654.709 399 691.709 385.2 738.509 385.2C786.909 385.2 824.309 399.6 850.709 428.4C877.509 456.8 890.909 494.2 890.909 540.6C890.909 587 876.509 623.8 847.709 651C818.909 677.8 780.909 691.2 733.709 691.2ZM810.509 540.6C810.509 513 804.309 491.4 791.909 475.8C779.909 459.8 762.709 451.8 740.309 451.8C717.509 451.8 699.709 458.8 686.909 472.8C674.109 486.8 667.709 508.2 667.709 537C667.709 565.8 673.109 587.6 683.909 602.4C695.109 617.2 712.109 624.6 734.909 624.6C757.309 624.6 775.509 618 789.509 604.8C803.509 591.2 810.509 569.8 810.509 540.6ZM1109.22 471.6C1095.22 465.2 1082.22 460.4 1070.22 457.2C1058.22 453.6 1045.42 451.8 1031.82 451.8C1021.82 451.8 1014.02 453.8 1008.42 457.8C1003.22 461.4 1000.62 466.6 1000.62 473.4C1000.62 478.2 1003.82 482.8 1010.22 487.2C1017.02 491.6 1027.82 496.4 1042.62 501.6C1067.02 510.4 1089.62 522.8 1110.42 538.8C1131.22 554.4 1141.62 574.8 1141.62 600C1141.62 628.8 1131.22 651.2 1110.42 667.2C1090.02 683.2 1060.02 691.2 1020.42 691.2C1008.02 691.2 991.416 688.8 970.616 684C950.216 679.2 933.216 671.6 919.616 661.2L943.016 604.8C957.016 611.2 970.416 616.2 983.216 619.8C996.416 623 1008.42 624.6 1019.22 624.6C1033.62 624.6 1044.62 622.6 1052.22 618.6C1059.82 614.6 1063.62 609.4 1063.62 603C1063.62 595 1059.82 587.8 1052.22 581.4C1044.62 575 1032.62 569.2 1016.22 564C993.016 556.4 971.016 545.6 950.216 531.6C929.816 517.2 919.616 498 919.616 474C919.616 446.4 929.816 424.8 950.216 409.2C970.616 393.2 998.216 385.2 1033.02 385.2C1045.42 385.2 1061.42 387.8 1081.02 393C1100.62 398.2 1117.82 405.8 1132.62 415.8L1109.22 471.6Z" fill="white"/>
<path d="M282.8 276H307.8V251H282.8V276ZM282.8 684V709H307.8V684H282.8ZM205.4 684H180.4V709H205.4V684ZM205.4 276V251H180.4V276H205.4ZM257.8 276V684H307.8V276H257.8ZM282.8 659H205.4V709H282.8V659ZM230.4 684V276H180.4V684H230.4ZM205.4 301H282.8V251H205.4V301ZM526.325 471.6L515.931 494.337L539.4 505.066L549.38 481.268L526.325 471.6ZM487.325 457.2L480.141 481.146L480.511 481.256L480.883 481.356L487.325 457.2ZM425.525 457.8L439.755 478.355L439.906 478.25L440.056 478.143L425.525 457.8ZM427.325 487.2L413.162 507.801L413.45 507.999L413.744 508.189L427.325 487.2ZM459.725 501.6L468.207 478.083L468.11 478.048L468.012 478.013L459.725 501.6ZM527.525 538.8L512.282 558.616L512.403 558.709L512.525 558.8L527.525 538.8ZM527.525 667.2L512.282 647.384L512.189 647.456L512.097 647.529L527.525 667.2ZM387.725 684L381.999 708.335L382.051 708.348L382.104 708.36L387.725 684ZM336.725 661.2L313.634 651.62L306.265 669.379L321.539 681.059L336.725 661.2ZM360.125 604.8L370.519 582.063L346.96 571.293L337.034 595.22L360.125 604.8ZM400.325 619.8L393.556 643.866L393.994 643.989L394.435 644.096L400.325 619.8ZM469.325 618.6L457.681 596.477L457.681 596.477L469.325 618.6ZM469.325 581.4L453.222 600.523L453.222 600.523L469.325 581.4ZM433.325 564L425.542 587.758L425.655 587.795L425.769 587.831L433.325 564ZM367.325 531.6L352.908 552.024L353.135 552.184L353.366 552.34L367.325 531.6ZM367.325 409.2L382.511 429.059L382.633 428.966L382.753 428.871L367.325 409.2ZM498.125 393L491.714 417.164L491.714 417.164L498.125 393ZM549.725 415.8L572.78 425.468L580.708 406.563L563.721 395.085L549.725 415.8ZM536.719 448.863C521.733 442.012 507.397 436.679 493.767 433.044L480.883 481.356C491.253 484.121 502.917 488.388 515.931 494.337L536.719 448.863ZM494.509 433.254C479.988 428.898 464.751 426.8 448.925 426.8V476.8C460.299 476.8 470.662 478.302 480.141 481.146L494.509 433.254ZM448.925 426.8C435.974 426.8 422.362 429.337 410.994 437.457L440.056 478.143C439.888 478.263 441.876 476.8 448.925 476.8V426.8ZM411.295 437.245C398.773 445.914 392.725 459.123 392.725 473.4H442.725C442.725 473.224 442.743 474.166 442.036 475.58C441.294 477.064 440.299 477.979 439.755 478.355L411.295 437.245ZM392.725 473.4C392.725 490.528 404.252 501.676 413.162 507.801L441.488 466.599C439.882 465.495 440.002 465.245 440.648 466.173C441.461 467.342 442.725 469.882 442.725 473.4H392.725ZM413.744 508.189C423.097 514.241 436.167 519.821 451.438 525.186L468.012 478.013C453.683 472.979 445.153 468.959 440.906 466.211L413.744 508.189ZM451.243 525.117C473.183 533.03 493.507 544.173 512.282 558.616L542.768 518.984C519.943 501.427 495.067 487.77 468.207 478.083L451.243 525.117ZM512.525 558.8C527.265 569.855 533.725 582.958 533.725 600H583.725C583.725 566.642 569.385 538.945 542.525 518.8L512.525 558.8ZM533.725 600C533.725 621.908 526.272 636.623 512.282 647.384L542.768 687.016C570.378 665.777 583.725 635.692 583.725 600H533.725ZM512.097 647.529C497.885 658.675 474.33 666.2 437.525 666.2V716.2C479.92 716.2 516.365 707.725 542.954 686.871L512.097 647.529ZM437.525 666.2C427.895 666.2 413.42 664.273 393.346 659.64L382.104 708.36C403.63 713.327 422.355 716.2 437.525 716.2V666.2ZM393.451 659.665C375.733 655.496 362.155 649.174 351.911 641.341L321.539 681.059C338.495 694.026 358.917 702.904 381.999 708.335L393.451 659.665ZM359.816 670.78L383.216 614.38L337.034 595.22L313.634 651.62L359.816 670.78ZM349.731 627.537C364.725 634.391 379.34 639.868 393.556 643.866L407.094 595.734C395.71 592.532 383.525 588.009 370.519 582.063L349.731 627.537ZM394.435 644.096C409.093 647.65 423.109 649.6 436.325 649.6V599.6C427.941 599.6 417.957 598.35 406.215 595.504L394.435 644.096ZM436.325 649.6C452.371 649.6 468.123 647.484 480.969 640.723L457.681 596.477C455.327 597.716 449.079 599.6 436.325 599.6V649.6ZM480.969 640.723C493.537 634.108 505.725 621.852 505.725 603H455.725C455.725 602.086 455.867 600.975 456.255 599.792C456.642 598.612 457.177 597.652 457.69 596.95C458.659 595.625 459.183 595.687 457.681 596.477L480.969 640.723ZM505.725 603C505.725 585.881 497.183 572.176 485.428 562.277L453.222 600.523C455.086 602.093 455.66 603.07 455.765 603.269C455.815 603.363 455.79 603.336 455.759 603.213C455.745 603.159 455.736 603.106 455.73 603.06C455.725 603.014 455.725 602.992 455.725 603H505.725ZM485.428 562.277C474.118 552.753 458.457 545.742 440.881 540.169L425.769 587.831C440.993 592.658 449.332 597.247 453.222 600.523L485.428 562.277ZM441.108 540.242C420.155 533.378 400.226 523.61 381.284 510.86L353.366 552.34C376.024 567.59 400.095 579.422 425.542 587.758L441.108 540.242ZM381.742 511.176C367.66 501.236 361.725 489.495 361.725 474H311.725C311.725 506.505 326.19 533.164 352.908 552.024L381.742 511.176ZM361.725 474C361.725 453.513 368.813 439.534 382.511 429.059L352.139 389.341C325.037 410.066 311.725 439.287 311.725 474H361.725ZM382.753 428.871C397.455 417.341 419.012 410.2 450.125 410.2V360.2C411.638 360.2 377.995 369.059 351.897 389.529L382.753 428.871ZM450.125 410.2C459.432 410.2 473.062 412.215 491.714 417.164L504.536 368.836C483.988 363.384 465.618 360.2 450.125 360.2V410.2ZM491.714 417.164C508.971 421.742 523.537 428.277 535.729 436.515L563.721 395.085C546.313 383.323 526.479 374.657 504.536 368.836L491.714 417.164ZM526.67 406.132L503.27 461.932L549.38 481.268L572.78 425.468L526.67 406.132ZM625.709 649.8L607.259 666.669L607.384 666.807L607.512 666.942L625.709 649.8ZM627.509 426.6L609.703 409.052L609.638 409.118L609.574 409.184L627.509 426.6ZM850.709 428.4L832.281 445.293L832.403 445.426L832.527 445.558L850.709 428.4ZM847.709 651L864.74 669.302L864.808 669.239L864.875 669.175L847.709 651ZM791.909 475.8L771.909 490.8L772.12 491.081L772.339 491.356L791.909 475.8ZM686.909 472.8L668.459 455.931L668.459 455.931L686.909 472.8ZM683.909 602.4L663.715 617.137L663.843 617.313L663.974 617.486L683.909 602.4ZM789.509 604.8L806.66 622.99L806.795 622.862L806.929 622.732L789.509 604.8ZM733.709 666.2C693.017 666.2 664.198 654.198 643.907 632.658L607.512 666.942C639.221 700.602 682.401 716.2 733.709 716.2V666.2ZM644.16 632.931C623.701 610.553 612.309 579.683 612.309 537.6H562.309C562.309 589.117 576.518 633.047 607.259 666.669L644.16 632.931ZM612.309 537.6C612.309 496.277 624.08 466.019 645.445 444.016L609.574 409.184C577.339 442.381 562.309 486.123 562.309 537.6H612.309ZM645.316 444.148C666.866 422.281 696.914 410.2 738.509 410.2V360.2C686.504 360.2 642.553 375.719 609.703 409.052L645.316 444.148ZM738.509 410.2C781.7 410.2 811.708 422.85 832.281 445.293L869.138 411.507C836.911 376.35 792.119 360.2 738.509 360.2V410.2ZM832.527 445.558C854.144 468.465 865.909 499.302 865.909 540.6H915.909C915.909 489.098 900.875 445.135 868.892 411.242L832.527 445.558ZM865.909 540.6C865.909 581.404 853.482 611.161 830.544 632.825L864.875 669.175C899.537 636.439 915.909 592.596 915.909 540.6H865.909ZM830.679 632.698C807.398 654.362 775.927 666.2 733.709 666.2V716.2C785.892 716.2 830.42 701.238 864.74 669.302L830.679 632.698ZM835.509 540.6C835.509 509.496 828.532 481.696 811.48 460.244L772.339 491.356C780.087 501.104 785.509 516.504 785.509 540.6H835.509ZM811.909 460.8C794.573 437.685 769.494 426.8 740.309 426.8V476.8C755.925 476.8 765.245 481.915 771.909 490.8L811.909 460.8ZM740.309 426.8C712.029 426.8 686.942 435.715 668.459 455.931L705.36 489.669C712.477 481.885 722.99 476.8 740.309 476.8V426.8ZM668.459 455.931C649.721 476.425 642.709 505.097 642.709 537H692.709C692.709 511.303 698.497 497.175 705.36 489.669L668.459 455.931ZM642.709 537C642.709 568.28 648.463 596.237 663.715 617.137L704.104 587.663C697.755 578.963 692.709 563.32 692.709 537H642.709ZM663.974 617.486C680.985 639.965 706.271 649.6 734.909 649.6V599.6C717.948 599.6 709.234 594.435 703.845 587.314L663.974 617.486ZM734.909 649.6C762.565 649.6 787.265 641.276 806.66 622.99L772.359 586.61C763.754 594.724 752.054 599.6 734.909 599.6V649.6ZM806.929 622.732C827.732 602.523 835.509 573.226 835.509 540.6H785.509C785.509 566.374 779.286 579.877 772.09 586.868L806.929 622.732ZM1109.22 471.6L1098.82 494.337L1122.29 505.066L1132.27 481.268L1109.22 471.6ZM1070.22 457.2L1063.03 481.146L1063.4 481.256L1063.77 481.356L1070.22 457.2ZM1008.42 457.8L1022.65 478.355L1022.8 478.25L1022.95 478.143L1008.42 457.8ZM1010.22 487.2L996.052 507.801L996.341 507.999L996.634 508.189L1010.22 487.2ZM1042.62 501.6L1051.1 478.083L1051 478.048L1050.9 478.013L1042.62 501.6ZM1110.42 538.8L1095.17 558.616L1095.29 558.709L1095.42 558.8L1110.42 538.8ZM1110.42 667.2L1095.17 647.384L1095.08 647.456L1094.99 647.529L1110.42 667.2ZM970.616 684L964.89 708.335L964.942 708.348L964.994 708.36L970.616 684ZM919.616 661.2L896.524 651.62L889.156 669.379L904.429 681.059L919.616 661.2ZM943.016 604.8L953.41 582.063L929.851 571.293L919.924 595.22L943.016 604.8ZM983.216 619.8L976.447 643.866L976.884 643.989L977.326 644.096L983.216 619.8ZM1052.22 618.6L1040.57 596.477L1040.57 596.477L1052.22 618.6ZM1052.22 581.4L1036.11 600.523L1036.11 600.523L1052.22 581.4ZM1016.22 564L1008.43 587.758L1008.55 587.795L1008.66 587.831L1016.22 564ZM950.216 531.6L935.799 552.024L936.026 552.184L936.256 552.34L950.216 531.6ZM950.216 409.2L965.402 429.059L965.524 428.966L965.644 428.871L950.216 409.2ZM1081.02 393L1074.6 417.164L1074.6 417.164L1081.02 393ZM1132.62 415.8L1155.67 425.468L1163.6 406.563L1146.61 395.085L1132.62 415.8ZM1119.61 448.863C1104.62 442.012 1090.29 436.679 1076.66 433.044L1063.77 481.356C1074.14 484.121 1085.81 488.388 1098.82 494.337L1119.61 448.863ZM1077.4 433.254C1062.88 428.898 1047.64 426.8 1031.82 426.8V476.8C1043.19 476.8 1053.55 478.302 1063.03 481.146L1077.4 433.254ZM1031.82 426.8C1018.86 426.8 1005.25 429.337 993.885 437.457L1022.95 478.143C1022.78 478.263 1024.77 476.8 1031.82 476.8V426.8ZM994.185 437.245C981.664 445.914 975.616 459.123 975.616 473.4H1025.62C1025.62 473.224 1025.63 474.166 1024.93 475.58C1024.18 477.064 1023.19 477.979 1022.65 478.355L994.185 437.245ZM975.616 473.4C975.616 490.528 987.143 501.676 996.052 507.801L1024.38 466.599C1022.77 465.495 1022.89 465.245 1023.54 466.173C1024.35 467.342 1025.62 469.882 1025.62 473.4H975.616ZM996.634 508.189C1005.99 514.241 1019.06 519.821 1034.33 525.186L1050.9 478.013C1036.57 472.979 1028.04 468.959 1023.8 466.211L996.634 508.189ZM1034.13 525.117C1056.07 533.03 1076.4 544.173 1095.17 558.616L1125.66 518.984C1102.83 501.427 1077.96 487.77 1051.1 478.083L1034.13 525.117ZM1095.42 558.8C1110.16 569.855 1116.62 582.958 1116.62 600H1166.62C1166.62 566.642 1152.28 538.945 1125.42 518.8L1095.42 558.8ZM1116.62 600C1116.62 621.908 1109.16 636.623 1095.17 647.384L1125.66 687.016C1153.27 665.777 1166.62 635.692 1166.62 600H1116.62ZM1094.99 647.529C1080.78 658.675 1057.22 666.2 1020.42 666.2V716.2C1062.81 716.2 1099.26 707.725 1125.84 686.871L1094.99 647.529ZM1020.42 666.2C1010.79 666.2 996.311 664.273 976.237 659.64L964.994 708.36C986.52 713.327 1005.25 716.2 1020.42 716.2V666.2ZM976.342 659.665C958.624 655.496 945.045 649.174 934.802 641.341L904.429 681.059C921.386 694.026 941.807 702.904 964.89 708.335L976.342 659.665ZM942.707 670.78L966.107 614.38L919.924 595.22L896.524 651.62L942.707 670.78ZM932.622 627.537C947.616 634.391 962.231 639.868 976.447 643.866L989.984 595.734C978.601 592.532 966.416 588.009 953.41 582.063L932.622 627.537ZM977.326 644.096C991.984 647.65 1006 649.6 1019.22 649.6V599.6C1010.83 599.6 1000.85 598.35 989.106 595.504L977.326 644.096ZM1019.22 649.6C1035.26 649.6 1051.01 647.484 1063.86 640.723L1040.57 596.477C1038.22 597.716 1031.97 599.6 1019.22 599.6V649.6ZM1063.86 640.723C1076.43 634.108 1088.62 621.852 1088.62 603H1038.62C1038.62 602.086 1038.76 600.975 1039.15 599.792C1039.53 598.612 1040.07 597.652 1040.58 596.95C1041.55 595.625 1042.07 595.687 1040.57 596.477L1063.86 640.723ZM1088.62 603C1088.62 585.881 1080.07 572.176 1068.32 562.277L1036.11 600.523C1037.98 602.093 1038.55 603.07 1038.66 603.269C1038.71 603.363 1038.68 603.336 1038.65 603.213C1038.64 603.159 1038.63 603.106 1038.62 603.06C1038.62 603.014 1038.62 602.992 1038.62 603H1088.62ZM1068.32 562.277C1057.01 552.753 1041.35 545.742 1023.77 540.169L1008.66 587.831C1023.88 592.658 1032.22 597.247 1036.11 600.523L1068.32 562.277ZM1024 540.242C1003.05 533.378 983.117 523.61 964.175 510.86L936.256 552.34C958.914 567.59 982.986 579.422 1008.43 587.758L1024 540.242ZM964.633 511.176C950.551 501.236 944.616 489.495 944.616 474H894.616C894.616 506.505 909.08 533.164 935.799 552.024L964.633 511.176ZM944.616 474C944.616 453.513 951.703 439.534 965.402 429.059L935.029 389.341C907.928 410.066 894.616 439.287 894.616 474H944.616ZM965.644 428.871C980.346 417.341 1001.9 410.2 1033.02 410.2V360.2C994.529 360.2 960.886 369.059 934.787 389.529L965.644 428.871ZM1033.02 410.2C1042.32 410.2 1055.95 412.215 1074.6 417.164L1087.43 368.836C1066.88 363.384 1048.51 360.2 1033.02 360.2V410.2ZM1074.6 417.164C1091.86 421.742 1106.43 428.277 1118.62 436.515L1146.61 395.085C1129.2 383.323 1109.37 374.657 1087.43 368.836L1074.6 417.164ZM1109.56 406.132L1086.16 461.932L1132.27 481.268L1155.67 425.468L1109.56 406.132Z" fill="#0267FF"/>
</g>
<g filter="url(#filter2_d_28_2)">
<path d="M1582.2 259C1594.6 259 1605 263.2 1613.4 271.6C1622.2 280 1626.6 290.4 1626.6 302.8C1626.6 315.2 1622.2 325.6 1613.4 334C1605 342.4 1594.6 346.6 1582.2 346.6C1570.2 346.6 1560 342.4 1551.6 334C1543.2 325.6 1539 315.2 1539 302.8C1539 290.4 1543.2 280 1551.6 271.6C1560 263.2 1570.2 259 1582.2 259ZM1621.2 388V679H1543.2V388H1621.2ZM1820.32 446.8C1798.32 446.8 1781.12 455.2 1768.72 472C1756.32 488.4 1750.12 509 1750.12 533.8C1750.12 559 1756.32 579.6 1768.72 595.6C1781.12 611.6 1798.32 619.6 1820.32 619.6C1833.92 619.6 1846.12 618 1856.92 614.8C1868.12 611.2 1880.72 606.2 1894.72 599.8L1916.92 656.2C1903.32 666.6 1886.72 674.2 1867.12 679C1847.92 683.8 1832.12 686.2 1819.72 686.2C1772.52 686.2 1735.72 672.4 1709.32 644.8C1682.92 617.2 1669.72 580.2 1669.72 533.8C1669.72 487.4 1682.92 450.2 1709.32 422.2C1735.72 394.2 1772.52 380.2 1819.72 380.2C1832.12 380.2 1847.72 382.8 1866.52 388C1885.72 393.2 1902.52 400.8 1916.92 410.8L1894.72 466.6C1880.72 460.2 1868.12 455.4 1856.92 452.2C1846.12 448.6 1833.92 446.8 1820.32 446.8Z" fill="white"/>
<path d="M1613.4 271.6L1595.72 289.278L1595.93 289.483L1596.14 289.684L1613.4 271.6ZM1613.4 334L1596.14 315.916L1595.93 316.117L1595.72 316.322L1613.4 334ZM1551.6 334L1569.28 316.322L1569.28 316.322L1551.6 334ZM1551.6 271.6L1569.28 289.278L1569.28 289.278L1551.6 271.6ZM1621.2 388H1646.2V363H1621.2V388ZM1621.2 679V704H1646.2V679H1621.2ZM1543.2 679H1518.2V704H1543.2V679ZM1543.2 388V363H1518.2V388H1543.2ZM1582.2 284C1588.29 284 1592.23 285.79 1595.72 289.278L1631.08 253.922C1617.77 240.61 1600.91 234 1582.2 234V284ZM1596.14 289.684C1599.89 293.265 1601.6 297.083 1601.6 302.8H1651.6C1651.6 283.717 1644.51 266.735 1630.66 253.516L1596.14 289.684ZM1601.6 302.8C1601.6 308.517 1599.89 312.335 1596.14 315.916L1630.66 352.084C1644.51 338.865 1651.6 321.883 1651.6 302.8H1601.6ZM1595.72 316.322C1592.23 319.81 1588.29 321.6 1582.2 321.6V371.6C1600.91 371.6 1617.77 364.99 1631.08 351.678L1595.72 316.322ZM1582.2 321.6C1576.75 321.6 1572.94 319.981 1569.28 316.322L1533.92 351.678C1547.06 364.819 1563.65 371.6 1582.2 371.6V321.6ZM1569.28 316.322C1565.79 312.835 1564 308.893 1564 302.8H1514C1514 321.507 1520.61 338.365 1533.92 351.678L1569.28 316.322ZM1564 302.8C1564 296.707 1565.79 292.765 1569.28 289.278L1533.92 253.922C1520.61 267.235 1514 284.093 1514 302.8H1564ZM1569.28 289.278C1572.94 285.619 1576.75 284 1582.2 284V234C1563.65 234 1547.06 240.781 1533.92 253.922L1569.28 289.278ZM1596.2 388V679H1646.2V388H1596.2ZM1621.2 654H1543.2V704H1621.2V654ZM1568.2 679V388H1518.2V679H1568.2ZM1543.2 413H1621.2V363H1543.2V413ZM1768.72 472L1788.66 487.078L1788.74 486.962L1788.83 486.846L1768.72 472ZM1768.72 595.6L1788.48 580.286L1788.48 580.286L1768.72 595.6ZM1856.92 614.8L1864.02 638.77L1864.29 638.688L1864.57 638.601L1856.92 614.8ZM1894.72 599.8L1917.98 590.643L1908.32 566.094L1884.32 577.063L1894.72 599.8ZM1916.92 656.2L1932.1 676.059L1947.09 664.599L1940.18 647.043L1916.92 656.2ZM1867.12 679L1861.17 654.718L1861.11 654.732L1861.05 654.746L1867.12 679ZM1709.32 644.8L1691.25 662.081L1709.32 644.8ZM1709.32 422.2L1691.13 405.05L1691.13 405.05L1709.32 422.2ZM1866.52 388L1859.85 412.095L1859.92 412.113L1859.98 412.131L1866.52 388ZM1916.92 410.8L1940.14 420.042L1947.49 401.592L1931.18 390.266L1916.92 410.8ZM1894.72 466.6L1884.32 489.337L1908.23 500.265L1917.94 475.842L1894.72 466.6ZM1856.92 452.2L1849.01 475.917L1849.53 476.089L1850.05 476.238L1856.92 452.2ZM1820.32 421.8C1790.88 421.8 1766 433.578 1748.6 457.154L1788.83 486.846C1796.23 476.822 1805.75 471.8 1820.32 471.8V421.8ZM1748.77 456.922C1732.46 478.502 1725.12 504.711 1725.12 533.8H1775.12C1775.12 513.289 1780.17 498.298 1788.66 487.078L1748.77 456.922ZM1725.12 533.8C1725.12 563.159 1732.4 589.55 1748.96 610.914L1788.48 580.286C1780.23 569.65 1775.12 554.841 1775.12 533.8H1725.12ZM1748.96 610.914C1766.54 633.61 1791.36 644.6 1820.32 644.6V594.6C1805.27 594.6 1795.69 589.59 1788.48 580.286L1748.96 610.914ZM1820.32 644.6C1835.84 644.6 1850.49 642.777 1864.02 638.77L1849.81 590.83C1841.74 593.223 1831.99 594.6 1820.32 594.6V644.6ZM1864.57 638.601C1876.93 634.625 1890.47 629.228 1905.11 622.537L1884.32 577.063C1870.96 583.172 1859.3 587.775 1849.27 590.999L1864.57 638.601ZM1871.45 608.957L1893.65 665.357L1940.18 647.043L1917.98 590.643L1871.45 608.957ZM1901.73 636.341C1891.32 644.304 1878.01 650.594 1861.17 654.718L1873.06 703.282C1895.42 697.806 1915.32 688.896 1932.1 676.059L1901.73 636.341ZM1861.05 654.746C1842.81 659.307 1829.23 661.2 1819.72 661.2V711.2C1835 711.2 1853.02 708.293 1873.18 703.254L1861.05 654.746ZM1819.72 661.2C1777.62 661.2 1748 649.072 1727.38 627.519L1691.25 662.081C1723.43 695.728 1767.41 711.2 1819.72 711.2V661.2ZM1727.38 627.519C1706.35 605.533 1694.72 575.227 1694.72 533.8H1644.72C1644.72 585.173 1659.48 628.867 1691.25 662.081L1727.38 627.519ZM1694.72 533.8C1694.72 492.387 1706.35 461.79 1727.51 439.35L1691.13 405.05C1659.48 438.61 1644.72 482.413 1644.72 533.8H1694.72ZM1727.51 439.35C1748.14 417.46 1777.73 405.2 1819.72 405.2V355.2C1767.3 355.2 1723.29 370.94 1691.13 405.05L1727.51 439.35ZM1819.72 405.2C1828.96 405.2 1842.13 407.194 1859.85 412.095L1873.18 363.905C1853.3 358.405 1835.27 355.2 1819.72 355.2V405.2ZM1859.98 412.131C1876.79 416.682 1890.9 423.17 1902.66 431.334L1931.18 390.266C1914.13 378.43 1894.65 369.718 1873.05 363.869L1859.98 412.131ZM1893.69 401.558L1871.49 457.358L1917.94 475.842L1940.14 420.042L1893.69 401.558ZM1905.11 443.863C1890.31 437.097 1876.5 431.796 1863.78 428.162L1850.05 476.238C1859.73 479.004 1871.12 483.303 1884.32 489.337L1905.11 443.863ZM1864.82 428.483C1851.03 423.886 1836.1 421.8 1820.32 421.8V471.8C1831.74 471.8 1841.2 473.314 1849.01 475.917L1864.82 428.483Z" fill="#0267FF"/>
</g>
</g>
<defs>
<filter id="filter0_d_28_2" x="-4" y="0" width="2426" height="983" filterUnits="userSpaceOnUse" color-interpolation-filters="sRGB">
<feFlood flood-opacity="0" result="BackgroundImageFix"/>
<feColorMatrix in="SourceAlpha" type="matrix" values="0 0 0 0 0 0 0 0 0 0 0 0 0 0 0 0 0 0 127 0" result="hardAlpha"/>
<feOffset dy="4"/>
<feGaussianBlur stdDeviation="2"/>
<feComposite in2="hardAlpha" operator="out"/>
<feColorMatrix type="matrix" values="0 0 0 0 0 0 0 0 0 0 0 0 0 0 0 0 0 0 0.25 0"/>
<feBlend mode="normal" in2="BackgroundImageFix" result="effect1_dropShadow_28_2"/>
<feBlend mode="normal" in="SourceGraphic" in2="effect1_dropShadow_28_2" result="shape"/>
</filter>
<filter id="filter1_d_28_2" x="201.4" y="276" width="944.216" height="423.2" filterUnits="userSpaceOnUse" color-interpolation-filters="sRGB">
<feFlood flood-opacity="0" result="BackgroundImageFix"/>
<feColorMatrix in="SourceAlpha" type="matrix" values="0 0 0 0 0 0 0 0 0 0 0 0 0 0 0 0 0 0 127 0" result="hardAlpha"/>
<feOffset dy="4"/>
<feGaussianBlur stdDeviation="2"/>
<feComposite in2="hardAlpha" operator="out"/>
<feColorMatrix type="matrix" values="0 0 0 0 0 0 0 0 0 0 0 0 0 0 0 0 0 0 0.25 0"/>
<feBlend mode="normal" in2="BackgroundImageFix" result="effect1_dropShadow_28_2"/>
<feBlend mode="normal" in="SourceGraphic" in2="effect1_dropShadow_28_2" result="shape"/>
</filter>
<filter id="filter2_d_28_2" x="1535" y="259" width="385.916" height="435.2" filterUnits="userSpaceOnUse" color-interpolation-filters="sRGB">
<feFlood flood-opacity="0" result="BackgroundImageFix"/>
<feColorMatrix in="SourceAlpha" type="matrix" values="0 0 0 0 0 0 0 0 0 0 0 0 0 0 0 0 0 0 127 0" result="hardAlpha"/>
<feOffset dy="4"/>
<feGaussianBlur stdDeviation="2"/>
<feComposite in2="hardAlpha" operator="out"/>
<feColorMatrix type="matrix" values="0 0 0 0 0 0 0 0 0 0 0 0 0 0 0 0 0 0 0.25 0"/>
<feBlend mode="normal" in2="BackgroundImageFix" result="effect1_dropShadow_28_2"/>
<feBlend mode="normal" in="SourceGraphic" in2="effect1_dropShadow_28_2" result="shape"/>
</filter>
<clipPath id="clip0_28_2">
<rect width="2418" height="975" fill="white"/>
</clipPath>
</defs>
</svg>
