<svg width="2418" height="975" viewBox="0 0 2418 975" fill="none" xmlns="http://www.w3.org/2000/svg">
<g clip-path="url(#clip0_28_2)" filter="url(#filter0_d_28_2)">
<rect x="1275" y="475" width="87" height="231" rx="6" fill="#0267FF"/>
<rect x="1312" y="430" width="14" height="45" fill="#0267FF"/>
<path d="M1488.49 389.614L1503 402L1321.51 447.701L1311.55 431.571L1396.01 412.144L1488.49 389.614Z" fill="#0267FF"/>
<rect x="1489" y="331" width="14" height="71" fill="#0267FF"/>
<rect x="1445" y="332" width="18" height="58" transform="rotate(-90 1445 332)" fill="#0267FF"/>
<rect x="1144" y="270" width="301" height="123" rx="6" fill="#0267FF"/>
<g filter="url(#filter1_d_28_2)">
<path d="M282.8 276V684H205.4V276H282.8ZM526.325 471.6C512.325 465.2 499.325 460.4 487.325 457.2C475.325 453.6 462.525 451.8 448.925 451.8C438.925 451.8 431.125 453.8 425.525 457.8C420.325 461.4 417.725 466.6 417.725 473.4C417.725 478.2 420.925 482.8 427.325 487.2C434.125 491.6 444.925 496.4 459.725 501.6C484.125 510.4 506.725 522.8 527.525 538.8C548.325 554.4 558.725 574.8 558.725 600C558.725 628.8 548.325 651.2 527.525 667.2C507.125 683.2 477.125 691.2 437.525 691.2C425.125 691.2 408.525 688.8 387.725 684C367.325 679.2 350.325 671.6 336.725 661.2L360.125 604.8C374.125 611.2 387.525 616.2 400.325 619.8C413.525 623 425.525 624.6 436.325 624.6C450.725 624.6 461.725 622.6 469.325 618.6C476.925 614.6 480.725 609.4 480.725 603C480.725 595 476.925 587.8 469.325 581.4C461.725 575 449.725 569.2 433.325 564C410.125 556.4 388.125 545.6 367.325 531.6C346.925 517.2 336.725 498 336.725 474C336.725 446.4 346.925 424.8 367.325 409.2C387.725 393.2 415.325 385.2 450.125 385.2C462.525 385.2 478.525 387.8 498.125 393C517.725 398.2 534.925 405.8 549.725 415.8L526.325 471.6ZM733.709 691.2C687.709 691.2 651.709 677.4 625.709 649.8C600.109 621.8 587.309 584.4 587.309 537.6C587.309 491.2 600.709 454.2 627.509 426.6C654.709 399 691.709 385.2 738.509 385.2C786.909 385.2 824.309 399.6 850.709 428.4C877.509 456.8 890.909 494.2 890.909 540.6C890.909 587 876.509 623.8 847.709 651C818.909 677.8 780.909 691.2 733.709 691.2ZM810.509 540.6C810.509 513 804.309 491.4 791.909 475.8C779.909 459.8 762.709 451.8 740.309 451.8C717.509 451.8 699.709 458.8 686.909 472.8C674.109 486.8 667.709 508.2 667.709 537C667.709 565.8 673.109 587.6 683.909 602.4C695.109 617.2 712.109 624.6 734.909 624.6C757.309 624.6 775.509 618 789.509 604.8C803.509 591.2 810.509 569.8 810.509 540.6ZM1109.22 471.6C1095.22 465.2 1082.22 460.4 1070.22 457.2C1058.22 453.6 1045.42 451.8 1031.82 451.8C1021.82 451.8 1014.02 453.8 1008.42 457.8C1003.22 461.4 1000.62 466.6 1000.62 473.4C1000.62 478.2 1003.82 482.8 1010.22 487.2C1017.02 491.6 1027.82 496.4 1042.62 501.6C1067.02 510.4 1089.62 522.8 1110.42 538.8C1131.22 554.4 1141.62 574.8 1141.62 600C1141.62 628.8 1131.22 651.2 1110.42 667.2C1090.02 683.2 1060.02 691.2 1020.42 691.2C1008.02 691.2 991.416 688.8 970.616 684C950.216 679.2 933.216 671.6 919.616 661.2L943.016 604.8C957.016 611.2 970.416 616.2 983.216 619.8C996.416 623 1008.42 624.6 1019.22 624.6C1033.62 624.6 1044.62 622.6 1052.22 618.6C1059.82 614.6 1063.62 609.4 1063.62 603C1063.62 595 1059.82 587.8 1052.22 581.4C1044.62 575 1032.62 569.2 1016.22 564C993.016 556.4 971.016 545.6 950.216 531.6C929.816 517.2 919.616 498 919.616 474C919.616 446.4 929.816 424.8 950.216 409.2C970.616 393.2 998.216 385.2 1033.02 385.2C1045.42 385.2 1061.42 387.8 1081.02 393C1100.62 398.2 1117.82 405.8 1132.62 415.8L1109.22 471.6Z" fill="white"/>
<path d="M282.8 276H297.8V261H282.8V276ZM282.8 684V699H297.8V684H282.8ZM205.4 684H190.4V699H205.4V684ZM205.4 276V261H190.4V276H205.4ZM267.8 276V684H297.8V276H267.8ZM282.8 669H205.4V699H282.8V669ZM220.4 684V276H190.4V684H220.4ZM205.4 291H282.8V261H205.4V291ZM526.325 471.6L520.089 485.242L534.17 491.679L540.158 477.401L526.325 471.6ZM487.325 457.2L483.015 471.567L483.236 471.634L483.46 471.694L487.325 457.2ZM425.525 457.8L434.063 470.133L434.154 470.07L434.244 470.006L425.525 457.8ZM427.325 487.2L418.827 499.561L419 499.68L419.176 499.794L427.325 487.2ZM459.725 501.6L464.814 487.49L464.756 487.469L464.697 487.448L459.725 501.6ZM527.525 538.8L518.379 550.689L518.452 550.745L518.525 550.8L527.525 538.8ZM527.525 667.2L518.379 655.311L518.323 655.354L518.268 655.397L527.525 667.2ZM387.725 684L384.289 698.601L384.321 698.609L384.352 698.616L387.725 684ZM336.725 661.2L322.87 655.452L318.449 666.108L327.613 673.115L336.725 661.2ZM360.125 604.8L366.361 591.158L352.226 584.696L346.27 599.052L360.125 604.8ZM400.325 619.8L396.264 634.24L396.526 634.314L396.791 634.378L400.325 619.8ZM469.325 618.6L462.339 605.326L462.339 605.326L469.325 618.6ZM469.325 581.4L459.663 592.874L459.663 592.874L469.325 581.4ZM433.325 564L428.655 578.255L428.723 578.277L428.791 578.298L433.325 564ZM367.325 531.6L358.675 543.855L358.811 543.951L358.949 544.044L367.325 531.6ZM367.325 409.2L376.437 421.115L376.51 421.06L376.582 421.003L367.325 409.2ZM498.125 393L494.278 407.498L494.278 407.498L498.125 393ZM549.725 415.8L563.558 421.601L568.315 410.258L558.123 403.371L549.725 415.8ZM532.561 457.958C517.97 451.287 504.168 446.167 491.19 442.706L483.46 471.694C494.482 474.633 506.68 479.113 520.089 485.242L532.561 457.958ZM491.635 442.833C478.123 438.779 463.861 436.8 448.925 436.8V466.8C461.189 466.8 472.527 468.421 483.015 471.567L491.635 442.833ZM448.925 436.8C437.154 436.8 425.867 439.122 416.806 445.594L434.244 470.006C436.383 468.478 440.696 466.8 448.925 466.8V436.8ZM416.987 445.467C407.394 452.108 402.725 462.114 402.725 473.4H432.725C432.725 471.935 432.996 471.299 433.091 471.108C433.166 470.958 433.349 470.627 434.063 470.133L416.987 445.467ZM402.725 473.4C402.725 485.597 410.921 494.125 418.827 499.561L435.823 474.839C433.579 473.297 432.691 472.247 432.439 471.884C432.337 471.739 432.42 471.82 432.525 472.129C432.636 472.456 432.725 472.9 432.725 473.4H402.725ZM419.176 499.794C427.508 505.185 439.67 510.453 454.753 515.752L464.697 487.448C450.18 482.347 440.742 478.015 435.474 474.606L419.176 499.794ZM454.636 515.71C477.56 523.978 498.794 535.624 518.379 550.689L536.671 526.911C514.656 509.976 490.69 496.822 464.814 487.49L454.636 515.71ZM518.525 550.8C535.689 563.673 543.725 579.695 543.725 600H573.725C573.725 569.905 560.961 545.127 536.525 526.8L518.525 550.8ZM543.725 600C543.725 624.665 535.093 642.454 518.379 655.311L536.671 679.089C561.557 659.946 573.725 632.935 573.725 600H543.725ZM518.268 655.397C501.581 668.485 475.448 676.2 437.525 676.2V706.2C478.802 706.2 512.669 697.915 536.782 679.003L518.268 655.397ZM437.525 676.2C426.787 676.2 411.462 674.084 391.098 669.384L384.352 698.616C405.588 703.516 423.463 706.2 437.525 706.2V676.2ZM391.161 669.399C372.37 664.977 357.423 658.144 345.837 649.285L327.613 673.115C343.227 685.056 362.28 693.423 384.289 698.601L391.161 669.399ZM350.58 666.948L373.98 610.548L346.27 599.052L322.87 655.452L350.58 666.948ZM353.889 618.442C368.485 625.115 382.614 630.401 396.264 634.24L404.386 605.36C392.436 601.999 379.765 597.285 366.361 591.158L353.889 618.442ZM396.791 634.378C410.866 637.79 424.075 639.6 436.325 639.6V609.6C426.975 609.6 416.184 608.21 403.859 605.222L396.791 634.378ZM436.325 639.6C451.713 639.6 465.564 637.53 476.311 631.874L462.339 605.326C457.886 607.67 449.737 609.6 436.325 609.6V639.6ZM476.311 631.874C486.892 626.305 495.725 616.871 495.725 603H465.725C465.725 603.091 465.715 603.035 465.758 602.905C465.8 602.777 465.836 602.751 465.764 602.85C465.585 603.095 464.76 604.052 462.339 605.326L476.311 631.874ZM495.725 603C495.725 589.529 489.08 578.425 478.987 569.926L459.663 592.874C464.77 597.175 465.725 600.471 465.725 603H495.725ZM478.987 569.926C469.161 561.652 454.964 555.125 437.859 549.702L428.791 578.298C444.486 583.275 454.289 588.348 459.663 592.874L478.987 569.926ZM437.995 549.745C416.143 542.587 395.386 532.406 375.701 519.156L358.949 544.044C380.864 558.794 404.107 570.213 428.655 578.255L437.995 549.745ZM375.975 519.345C359.366 507.621 351.725 492.897 351.725 474H321.725C321.725 503.103 334.484 526.779 358.675 543.855L375.975 519.345ZM351.725 474C351.725 450.668 360.058 433.641 376.437 421.115L358.213 397.285C333.792 415.959 321.725 442.132 321.725 474H351.725ZM376.582 421.003C393.563 407.684 417.537 400.2 450.125 400.2V370.2C413.113 370.2 381.887 378.716 358.068 397.397L376.582 421.003ZM450.125 400.2C460.669 400.2 475.247 402.449 494.278 407.498L501.972 378.502C481.803 373.151 464.381 370.2 450.125 370.2V400.2ZM494.278 407.498C512.473 412.325 528.092 419.286 541.327 428.229L558.123 403.371C541.758 392.314 522.977 384.074 501.972 378.502L494.278 407.498ZM535.892 409.999L512.492 465.799L540.158 477.401L563.558 421.601L535.892 409.999ZM625.709 649.8L614.639 659.922L614.714 660.004L614.791 660.085L625.709 649.8ZM627.509 426.6L616.826 416.071L616.787 416.111L616.748 416.15L627.509 426.6ZM850.709 428.4L839.652 438.536L839.725 438.616L839.8 438.695L850.709 428.4ZM847.709 651L857.928 661.981L857.968 661.943L858.009 661.905L847.709 651ZM791.909 475.8L779.909 484.8L780.036 484.969L780.167 485.134L791.909 475.8ZM686.909 472.8L675.839 462.678L675.839 462.678L686.909 472.8ZM683.909 602.4L671.793 611.242L671.869 611.348L671.948 611.452L683.909 602.4ZM789.509 604.8L799.8 615.714L799.881 615.637L799.961 615.559L789.509 604.8ZM733.709 676.2C690.894 676.2 659.203 663.479 636.628 639.515L614.791 660.085C644.216 691.321 684.525 706.2 733.709 706.2V676.2ZM636.78 639.678C614.264 615.052 602.309 581.57 602.309 537.6H572.309C572.309 587.23 585.955 628.548 614.639 659.922L636.78 639.678ZM602.309 537.6C602.309 494.246 614.732 461.291 638.271 437.049L616.748 416.15C586.687 447.109 572.309 488.154 572.309 537.6H602.309ZM638.193 437.129C662.003 412.968 694.832 400.2 738.509 400.2V370.2C688.586 370.2 647.415 385.032 616.826 416.071L638.193 437.129ZM738.509 400.2C783.784 400.2 816.748 413.55 839.652 438.536L861.767 418.264C831.87 385.65 790.035 370.2 738.509 370.2V400.2ZM839.8 438.695C863.49 463.799 875.909 497.261 875.909 540.6H905.909C905.909 491.139 891.529 449.801 861.619 418.105L839.8 438.695ZM875.909 540.6C875.909 583.642 862.693 616.217 837.41 640.095L858.009 661.905C890.326 631.383 905.909 590.358 905.909 540.6H875.909ZM837.491 640.019C812.003 663.737 777.92 676.2 733.709 676.2V706.2C783.899 706.2 825.816 691.863 857.928 661.981L837.491 640.019ZM825.509 540.6C825.509 510.898 818.843 485.578 803.652 466.466L780.167 485.134C789.776 497.222 795.509 515.102 795.509 540.6H825.509ZM803.909 466.8C788.708 446.531 766.78 436.8 740.309 436.8V466.8C758.639 466.8 771.111 473.069 779.909 484.8L803.909 466.8ZM740.309 436.8C714.221 436.8 692.049 444.949 675.839 462.678L697.98 482.922C707.37 472.651 720.798 466.8 740.309 466.8V436.8ZM675.839 462.678C659.477 480.575 652.709 506.338 652.709 537H682.709C682.709 510.062 688.742 493.025 697.98 482.922L675.839 462.678ZM652.709 537C652.709 567.288 658.322 592.782 671.793 611.242L696.026 593.558C687.897 582.418 682.709 564.312 682.709 537H652.709ZM671.948 611.452C686.635 630.859 708.606 639.6 734.909 639.6V609.6C715.613 609.6 703.584 603.541 695.87 593.348L671.948 611.452ZM734.909 639.6C760.463 639.6 782.563 631.966 799.8 615.714L779.219 593.886C768.456 604.034 754.156 609.6 734.909 609.6V639.6ZM799.961 615.559C818.043 597.994 825.509 571.856 825.509 540.6H795.509C795.509 567.744 788.976 584.406 779.058 594.041L799.961 615.559ZM1109.22 471.6L1102.98 485.242L1117.06 491.679L1123.05 477.401L1109.22 471.6ZM1070.22 457.2L1065.91 471.567L1066.13 471.634L1066.35 471.694L1070.22 457.2ZM1008.42 457.8L1016.95 470.133L1017.04 470.07L1017.13 470.006L1008.42 457.8ZM1010.22 487.2L1001.72 499.561L1001.89 499.68L1002.07 499.794L1010.22 487.2ZM1042.62 501.6L1047.7 487.49L1047.65 487.469L1047.59 487.448L1042.62 501.6ZM1110.42 538.8L1101.27 550.689L1101.34 550.745L1101.42 550.8L1110.42 538.8ZM1110.42 667.2L1101.27 655.311L1101.21 655.354L1101.16 655.397L1110.42 667.2ZM970.616 684L967.18 698.601L967.211 698.609L967.243 698.616L970.616 684ZM919.616 661.2L905.761 655.452L901.34 666.108L910.504 673.115L919.616 661.2ZM943.016 604.8L949.252 591.158L935.117 584.696L929.161 599.052L943.016 604.8ZM983.216 619.8L979.154 634.24L979.417 634.314L979.682 634.378L983.216 619.8ZM1052.22 618.6L1045.23 605.326L1045.23 605.326L1052.22 618.6ZM1052.22 581.4L1042.55 592.874L1042.55 592.874L1052.22 581.4ZM1016.22 564L1011.55 578.255L1011.61 578.277L1011.68 578.298L1016.22 564ZM950.216 531.6L941.565 543.855L941.702 543.951L941.84 544.044L950.216 531.6ZM950.216 409.2L959.327 421.115L959.4 421.06L959.473 421.003L950.216 409.2ZM1081.02 393L1077.17 407.498L1077.17 407.498L1081.02 393ZM1132.62 415.8L1146.45 421.601L1151.21 410.258L1141.01 403.371L1132.62 415.8ZM1115.45 457.958C1100.86 451.287 1087.06 446.167 1074.08 442.706L1066.35 471.694C1077.37 474.633 1089.57 479.113 1102.98 485.242L1115.45 457.958ZM1074.53 442.833C1061.01 438.779 1046.75 436.8 1031.82 436.8V466.8C1044.08 466.8 1055.42 468.421 1065.91 471.567L1074.53 442.833ZM1031.82 436.8C1020.04 436.8 1008.76 439.122 999.697 445.594L1017.13 470.006C1019.27 468.478 1023.59 466.8 1031.82 466.8V436.8ZM999.877 445.467C990.285 452.108 985.616 462.114 985.616 473.4H1015.62C1015.62 471.935 1015.89 471.299 1015.98 471.108C1016.06 470.958 1016.24 470.627 1016.95 470.133L999.877 445.467ZM985.616 473.4C985.616 485.597 993.812 494.125 1001.72 499.561L1018.71 474.839C1016.47 473.297 1015.58 472.247 1015.33 471.884C1015.23 471.739 1015.31 471.82 1015.42 472.129C1015.53 472.456 1015.62 472.9 1015.62 473.4H985.616ZM1002.07 499.794C1010.4 505.185 1022.56 510.453 1037.64 515.752L1047.59 487.448C1033.07 482.347 1023.63 478.015 1018.36 474.606L1002.07 499.794ZM1037.53 515.71C1060.45 523.978 1081.68 535.624 1101.27 550.689L1119.56 526.911C1097.55 509.976 1073.58 496.822 1047.7 487.49L1037.53 515.71ZM1101.42 550.8C1118.58 563.673 1126.62 579.695 1126.62 600H1156.62C1156.62 569.905 1143.85 545.127 1119.42 526.8L1101.42 550.8ZM1126.62 600C1126.62 624.665 1117.98 642.454 1101.27 655.311L1119.56 679.089C1144.45 659.946 1156.62 632.935 1156.62 600H1126.62ZM1101.16 655.397C1084.47 668.485 1058.34 676.2 1020.42 676.2V706.2C1061.69 706.2 1095.56 697.915 1119.67 679.003L1101.16 655.397ZM1020.42 676.2C1009.68 676.2 994.353 674.084 973.989 669.384L967.243 698.616C988.478 703.516 1006.35 706.2 1020.42 706.2V676.2ZM974.051 669.399C955.261 664.977 940.313 658.144 928.727 649.285L910.504 673.115C926.118 685.056 945.171 693.423 967.18 698.601L974.051 669.399ZM933.47 666.948L956.87 610.548L929.161 599.052L905.761 655.452L933.47 666.948ZM936.779 618.442C951.376 625.115 965.505 630.401 979.154 634.24L987.277 605.36C975.327 601.999 962.656 597.285 949.252 591.158L936.779 618.442ZM979.682 634.378C993.757 637.79 1006.97 639.6 1019.22 639.6V609.6C1009.87 609.6 999.075 608.21 986.75 605.222L979.682 634.378ZM1019.22 639.6C1034.6 639.6 1048.45 637.53 1059.2 631.874L1045.23 605.326C1040.78 607.67 1032.63 609.6 1019.22 609.6V639.6ZM1059.2 631.874C1069.78 626.305 1078.62 616.871 1078.62 603H1048.62C1048.62 603.091 1048.61 603.035 1048.65 602.905C1048.69 602.777 1048.73 602.751 1048.65 602.85C1048.48 603.095 1047.65 604.052 1045.23 605.326L1059.2 631.874ZM1078.62 603C1078.62 589.529 1071.97 578.425 1061.88 569.926L1042.55 592.874C1047.66 597.175 1048.62 600.471 1048.62 603H1078.62ZM1061.88 569.926C1052.05 561.652 1037.85 555.125 1020.75 549.702L1011.68 578.298C1027.38 583.275 1037.18 588.348 1042.55 592.874L1061.88 569.926ZM1020.89 549.745C999.033 542.587 978.276 532.406 958.591 519.156L941.84 544.044C963.755 558.794 986.998 570.213 1011.55 578.255L1020.89 549.745ZM958.866 519.345C942.257 507.621 934.616 492.897 934.616 474H904.616C904.616 503.103 917.374 526.779 941.565 543.855L958.866 519.345ZM934.616 474C934.616 450.668 942.948 433.641 959.327 421.115L941.104 397.285C916.683 415.959 904.616 442.132 904.616 474H934.616ZM959.473 421.003C976.454 407.684 1000.43 400.2 1033.02 400.2V370.2C996.004 370.2 964.778 378.716 940.959 397.397L959.473 421.003ZM1033.02 400.2C1043.56 400.2 1058.14 402.449 1077.17 407.498L1084.86 378.502C1064.69 373.151 1047.27 370.2 1033.02 370.2V400.2ZM1077.17 407.498C1095.36 412.325 1110.98 419.286 1124.22 428.229L1141.01 403.371C1124.65 392.314 1105.87 384.074 1084.86 378.502L1077.17 407.498ZM1118.78 409.999L1095.38 465.799L1123.05 477.401L1146.45 421.601L1118.78 409.999Z" fill="#0267FF"/>
</g>
<g filter="url(#filter2_d_28_2)">
<path d="M1582.2 259C1594.6 259 1605 263.2 1613.4 271.6C1622.2 280 1626.6 290.4 1626.6 302.8C1626.6 315.2 1622.2 325.6 1613.4 334C1605 342.4 1594.6 346.6 1582.2 346.6C1570.2 346.6 1560 342.4 1551.6 334C1543.2 325.6 1539 315.2 1539 302.8C1539 290.4 1543.2 280 1551.6 271.6C1560 263.2 1570.2 259 1582.2 259ZM1621.2 388V679H1543.2V388H1621.2ZM1820.32 446.8C1798.32 446.8 1781.12 455.2 1768.72 472C1756.32 488.4 1750.12 509 1750.12 533.8C1750.12 559 1756.32 579.6 1768.72 595.6C1781.12 611.6 1798.32 619.6 1820.32 619.6C1833.92 619.6 1846.12 618 1856.92 614.8C1868.12 611.2 1880.72 606.2 1894.72 599.8L1916.92 656.2C1903.32 666.6 1886.72 674.2 1867.12 679C1847.92 683.8 1832.12 686.2 1819.72 686.2C1772.52 686.2 1735.72 672.4 1709.32 644.8C1682.92 617.2 1669.72 580.2 1669.72 533.8C1669.72 487.4 1682.92 450.2 1709.32 422.2C1735.72 394.2 1772.52 380.2 1819.72 380.2C1832.12 380.2 1847.72 382.8 1866.52 388C1885.72 393.2 1902.52 400.8 1916.92 410.8L1894.72 466.6C1880.72 460.2 1868.12 455.4 1856.92 452.2C1846.12 448.6 1833.92 446.8 1820.32 446.8Z" fill="white"/>
<path d="M1613.4 271.6L1602.79 282.207L1602.92 282.33L1603.04 282.45L1613.4 271.6ZM1613.4 334L1603.04 323.15L1602.92 323.27L1602.79 323.393L1613.4 334ZM1551.6 334L1562.21 323.393L1562.21 323.393L1551.6 334ZM1551.6 271.6L1562.21 282.207L1562.21 282.207L1551.6 271.6ZM1621.2 388H1636.2V373H1621.2V388ZM1621.2 679V694H1636.2V679H1621.2ZM1543.2 679H1528.2V694H1543.2V679ZM1543.2 388V373H1528.2V388H1543.2ZM1582.2 274C1590.82 274 1597.34 276.754 1602.79 282.207L1624.01 260.993C1612.66 249.646 1598.38 244 1582.2 244V274ZM1603.04 282.45C1608.81 287.959 1611.6 294.41 1611.6 302.8H1641.6C1641.6 286.39 1635.59 272.041 1623.76 260.75L1603.04 282.45ZM1611.6 302.8C1611.6 311.19 1608.81 317.641 1603.04 323.15L1623.76 344.85C1635.59 333.559 1641.6 319.21 1641.6 302.8H1611.6ZM1602.79 323.393C1597.34 328.846 1590.82 331.6 1582.2 331.6V361.6C1598.38 361.6 1612.66 355.954 1624.01 344.607L1602.79 323.393ZM1582.2 331.6C1574.13 331.6 1567.76 328.948 1562.21 323.393L1540.99 344.607C1552.24 355.852 1566.27 361.6 1582.2 361.6V331.6ZM1562.21 323.393C1556.75 317.941 1554 311.416 1554 302.8H1524C1524 318.984 1529.65 333.259 1540.99 344.607L1562.21 323.393ZM1554 302.8C1554 294.184 1556.75 287.659 1562.21 282.207L1540.99 260.993C1529.65 272.341 1524 286.616 1524 302.8H1554ZM1562.21 282.207C1567.76 276.652 1574.13 274 1582.2 274V244C1566.27 244 1552.24 249.748 1540.99 260.993L1562.21 282.207ZM1606.2 388V679H1636.2V388H1606.2ZM1621.2 664H1543.2V694H1621.2V664ZM1558.2 679V388H1528.2V679H1558.2ZM1543.2 403H1621.2V373H1543.2V403ZM1768.72 472L1780.68 481.047L1780.73 480.977L1780.78 480.908L1768.72 472ZM1768.72 595.6L1780.57 586.411L1780.57 586.411L1768.72 595.6ZM1856.92 614.8L1861.18 629.182L1861.34 629.133L1861.51 629.08L1856.92 614.8ZM1894.72 599.8L1908.67 594.306L1902.88 579.577L1888.48 586.158L1894.72 599.8ZM1916.92 656.2L1926.03 668.115L1935.02 661.239L1930.87 650.706L1916.92 656.2ZM1867.12 679L1863.55 664.431L1863.51 664.439L1863.48 664.448L1867.12 679ZM1709.32 644.8L1698.48 655.168L1709.32 644.8ZM1709.32 422.2L1698.4 411.91L1698.4 411.91L1709.32 422.2ZM1866.52 388L1862.52 402.457L1862.56 402.468L1862.59 402.478L1866.52 388ZM1916.92 410.8L1930.85 416.345L1935.26 405.275L1925.47 398.479L1916.92 410.8ZM1894.72 466.6L1888.48 480.242L1902.82 486.799L1908.65 472.145L1894.72 466.6ZM1856.92 452.2L1852.17 466.43L1852.48 466.533L1852.79 466.623L1856.92 452.2ZM1820.32 431.8C1793.85 431.8 1772.05 442.227 1756.65 463.092L1780.78 480.908C1790.18 468.173 1802.78 461.8 1820.32 461.8V431.8ZM1756.75 462.953C1742 482.461 1735.12 506.427 1735.12 533.8H1765.12C1765.12 511.573 1770.63 494.339 1780.68 481.047L1756.75 462.953ZM1735.12 533.8C1735.12 561.495 1741.96 585.57 1756.86 604.789L1780.57 586.411C1770.67 573.63 1765.12 556.505 1765.12 533.8H1735.12ZM1756.86 604.789C1772.37 624.806 1794.14 634.6 1820.32 634.6V604.6C1802.49 604.6 1789.86 598.394 1780.57 586.411L1756.86 604.789ZM1820.32 634.6C1835.07 634.6 1848.74 632.866 1861.18 629.182L1852.65 600.418C1843.49 603.134 1832.76 604.6 1820.32 604.6V634.6ZM1861.51 629.08C1873.41 625.255 1886.57 620.017 1900.95 613.442L1888.48 586.158C1874.86 592.383 1862.82 597.145 1852.33 600.52L1861.51 629.08ZM1880.76 605.294L1902.96 661.694L1930.87 650.706L1908.67 594.306L1880.76 605.294ZM1907.8 644.285C1896.12 653.222 1881.49 660.036 1863.55 664.431L1870.68 693.569C1891.94 688.364 1910.52 679.978 1926.03 668.115L1907.8 644.285ZM1863.48 664.448C1844.85 669.104 1830.39 671.2 1819.72 671.2V701.2C1833.85 701.2 1850.98 698.496 1870.75 693.552L1863.48 664.448ZM1819.72 671.2C1775.58 671.2 1743.08 658.403 1720.16 634.432L1698.48 655.168C1728.35 686.397 1769.45 701.2 1819.72 701.2V671.2ZM1720.16 634.432C1696.98 610.2 1684.72 577.216 1684.72 533.8H1654.72C1654.72 583.184 1668.85 624.2 1698.48 655.168L1720.16 634.432ZM1684.72 533.8C1684.72 490.392 1696.97 457.154 1720.23 432.49L1698.4 411.91C1668.86 443.246 1654.72 484.408 1654.72 533.8H1684.72ZM1720.23 432.49C1743.17 408.156 1775.64 395.2 1819.72 395.2V365.2C1769.39 365.2 1728.26 380.244 1698.4 411.91L1720.23 432.49ZM1819.72 395.2C1830.22 395.2 1844.37 397.437 1862.52 402.457L1870.51 373.543C1851.07 368.163 1834.01 365.2 1819.72 365.2V395.2ZM1862.59 402.478C1880.36 407.289 1895.55 414.222 1908.36 423.121L1925.47 398.479C1909.49 387.378 1891.07 379.111 1870.44 373.522L1862.59 402.478ZM1902.98 405.255L1880.78 461.055L1908.65 472.145L1930.85 416.345L1902.98 405.255ZM1900.95 452.958C1886.47 446.338 1873.15 441.237 1861.04 437.777L1852.79 466.623C1863.08 469.563 1874.96 474.062 1888.48 480.242L1900.95 452.958ZM1861.66 437.97C1849.07 433.772 1835.22 431.8 1820.32 431.8V461.8C1832.61 461.8 1843.17 463.428 1852.17 466.43L1861.66 437.97Z" fill="#0267FF"/>
</g>
</g>
<defs>
<filter id="filter0_d_28_2" x="-4" y="0" width="2426" height="983" filterUnits="userSpaceOnUse" color-interpolation-filters="sRGB">
<feFlood flood-opacity="0" result="BackgroundImageFix"/>
<feColorMatrix in="SourceAlpha" type="matrix" values="0 0 0 0 0 0 0 0 0 0 0 0 0 0 0 0 0 0 127 0" result="hardAlpha"/>
<feOffset dy="4"/>
<feGaussianBlur stdDeviation="2"/>
<feComposite in2="hardAlpha" operator="out"/>
<feColorMatrix type="matrix" values="0 0 0 0 0 0 0 0 0 0 0 0 0 0 0 0 0 0 0.25 0"/>
<feBlend mode="normal" in2="BackgroundImageFix" result="effect1_dropShadow_28_2"/>
<feBlend mode="normal" in="SourceGraphic" in2="effect1_dropShadow_28_2" result="shape"/>
</filter>
<filter id="filter1_d_28_2" x="201.4" y="276" width="944.216" height="423.2" filterUnits="userSpaceOnUse" color-interpolation-filters="sRGB">
<feFlood flood-opacity="0" result="BackgroundImageFix"/>
<feColorMatrix in="SourceAlpha" type="matrix" values="0 0 0 0 0 0 0 0 0 0 0 0 0 0 0 0 0 0 127 0" result="hardAlpha"/>
<feOffset dy="4"/>
<feGaussianBlur stdDeviation="2"/>
<feComposite in2="hardAlpha" operator="out"/>
<feColorMatrix type="matrix" values="0 0 0 0 0 0 0 0 0 0 0 0 0 0 0 0 0 0 0.25 0"/>
<feBlend mode="normal" in2="BackgroundImageFix" result="effect1_dropShadow_28_2"/>
<feBlend mode="normal" in="SourceGraphic" in2="effect1_dropShadow_28_2" result="shape"/>
</filter>
<filter id="filter2_d_28_2" x="1535" y="259" width="385.916" height="435.2" filterUnits="userSpaceOnUse" color-interpolation-filters="sRGB">
<feFlood flood-opacity="0" result="BackgroundImageFix"/>
<feColorMatrix in="SourceAlpha" type="matrix" values="0 0 0 0 0 0 0 0 0 0 0 0 0 0 0 0 0 0 127 0" result="hardAlpha"/>
<feOffset dy="4"/>
<feGaussianBlur stdDeviation="2"/>
<feComposite in2="hardAlpha" operator="out"/>
<feColorMatrix type="matrix" values="0 0 0 0 0 0 0 0 0 0 0 0 0 0 0 0 0 0 0.25 0"/>
<feBlend mode="normal" in2="BackgroundImageFix" result="effect1_dropShadow_28_2"/>
<feBlend mode="normal" in="SourceGraphic" in2="effect1_dropShadow_28_2" result="shape"/>
</filter>
<clipPath id="clip0_28_2">
<rect width="2418" height="975" fill="white"/>
</clipPath>
</defs>
</svg>
